<svg xmlns="http://www.w3.org/2000/svg" xmlns:xlink="http://www.w3.org/1999/xlink" width="500" zoomAndPan="magnify" viewBox="0 0 375 374.999991" height="500" preserveAspectRatio="xMidYMid meet" version="1.0"><path fill="#ffffff" d="M 97.054688 78.964844 L 71.816406 109.113281 L 176.035156 109.113281 L 124.222656 167.898438 L 72.40625 226.6875 L 139.464844 228.394531 L 206.519531 230.105469 L 157.820312 283.453125 C 131.03125 312.792969 109.113281 339.835938 109.113281 343.542969 C 109.113281 347.820312 123.289062 350.289062 147.773438 350.289062 L 186.433594 350.289062 L 244.246094 285.859375 C 287.597656 237.546875 302.054688 217.300781 302.054688 204.894531 C 302.054688 179.246094 287.730469 169.40625 250.378906 169.40625 C 232.375 169.40625 217.644531 167.652344 217.644531 165.511719 C 217.644531 163.371094 229.851562 148.5625 244.777344 132.609375 C 274.742188 100.570312 280.066406 76.160156 260.878906 58.796875 C 252.082031 50.835938 236.960938 48.816406 186.074219 48.816406 L 122.292969 48.816406 Z M 97.054688 78.964844 " fill-opacity="1" fill-rule="evenodd"/></svg>