<svg width="24" height="24" viewBox="0 0 24 24" fill="none" xmlns="http://www.w3.org/2000/svg">
<g clip-path="url(#clip0_173_42441)">
<path d="M18.5306 12.3029C18.5166 11.9954 18.4969 11.6954 18.4781 11.4057L18.4772 11.4047C18.4266 10.7288 18.1257 10.095 17.6325 9.62911L16.4541 8.50785L13.049 5.26305C12.4602 4.70431 11.5368 4.70431 10.949 5.26305L7.54576 8.50785L6.36731 9.62911C5.87231 10.0941 5.57044 10.7279 5.51983 11.4047C5.48889 11.8341 5.46264 12.2832 5.44576 12.7463C5.42701 13.2694 5.4167 13.8141 5.4167 14.371C5.4167 15.4819 5.45795 16.531 5.5292 17.491C5.57983 18.2269 6.13859 18.8278 6.86888 18.931C7.14263 18.9666 7.43327 19.0031 7.73795 19.0341C8.23482 19.0847 8.77201 19.125 9.34107 19.1569C9.55201 19.1691 9.75827 19.0941 9.91295 18.9497C10.0667 18.8044 10.1539 18.6028 10.1539 18.391V14.6213C10.1539 13.8253 10.7989 13.1813 11.5939 13.1813H12.4058C13.2008 13.1813 13.8458 13.8253 13.8458 14.6213V18.389C13.8458 18.6 13.9329 18.8025 14.0867 18.9468C14.2414 19.0922 14.4476 19.1672 14.6586 19.154C15.2276 19.1231 15.7648 19.0819 16.2617 19.0312C16.5664 19.0003 16.857 18.9637 17.1308 18.9281V18.929C17.8611 18.825 18.4198 18.225 18.4704 17.489C18.5426 16.529 18.5829 15.4828 18.5829 14.369C18.5782 13.6556 18.5616 12.96 18.5306 12.3029Z" fill="#340143"/>
</g>
<defs>
<clipPath id="clip0_173_42441">
<rect width="24" height="24" fill="white"/>
</clipPath>
</defs>
</svg>
