<svg width="23" height="23" viewBox="0 0 23 23" fill="none" xmlns="http://www.w3.org/2000/svg">
<path d="M8.30823 10.3664L9.5264 14.1038H13.4738L14.6919 10.3664L11.5001 8.0564L8.30823 10.3664Z" fill="#340143"/>
<path d="M12.0464 3.3732H12.0251C11.857 3.35187 11.6888 3.35187 11.5215 3.35187C11.3533 3.35187 11.1646 3.35187 10.9965 3.3732H10.9546C6.71199 3.64636 3.35199 7.19499 3.35199 11.5C3.35199 13.6418 4.19199 15.595 5.53557 17.0436C5.5569 17.0649 5.5569 17.0649 5.57741 17.0854C5.68241 17.1904 5.78741 17.3167 5.91374 17.4217C5.91374 17.4217 5.93507 17.4217 5.93507 17.4431C7.40507 18.8294 9.35828 19.6695 11.5215 19.6695C16.0151 19.6695 19.6697 16.0159 19.6697 11.5213C19.6484 7.19486 16.2882 3.64641 12.0464 3.3732ZM14.2932 15.2588L13.3269 18.1988H13.3482C12.7601 18.3883 12.1301 18.4719 11.5001 18.4719C10.8701 18.4719 10.2614 18.3883 9.69373 18.2406L8.74873 15.3006L5.66194 15.3014C5.05327 14.3564 4.65377 13.2646 4.54877 12.0882L6.98519 10.1982L5.93519 7.30001C6.71202 6.27134 7.76202 5.47318 8.98019 5.01143L11.4788 6.81776L13.9988 4.99011C15.2169 5.45194 16.267 6.25011 17.0438 7.27869L15.9724 10.1973L18.4089 12.1086L18.4507 12.0668C18.367 13.2431 17.9675 14.335 17.3589 15.28H14.2933L14.2932 15.2588Z" fill="#340143"/>
<path d="M10.8914 5.68317H12.0678V9.14817H10.8914V5.68317Z" fill="#340143"/>
<path d="M13.4352 10.0529L17.0783 9.31458L17.3121 10.4671L13.669 11.2054L13.4352 10.0529Z" fill="#340143"/>
<path d="M12.3448 13.3423L13.3629 12.7534L15.1815 15.8985L14.1635 16.4875L12.3448 13.3423Z" fill="#340143"/>
<path d="M7.80695 15.9148L9.64363 12.7558L10.66 13.3472L8.8233 16.5063L7.80695 15.9148Z" fill="#340143"/>
<path d="M4.64545 10.2499L4.87021 9.0957L9.79702 10.0546L9.57226 11.2088L4.64545 10.2499Z" fill="#340143"/>
</svg>
