<svg width="24" height="24" viewBox="0 0 24 24" fill="none" xmlns="http://www.w3.org/2000/svg">
<g clip-path="url(#clip0_173_42385)">
<path d="M9.08466 20.0775H9.02054C8.43771 20.0459 7.88168 20.0019 7.36965 19.9502C7.05096 19.9186 6.74951 19.8813 6.46813 19.842C5.55129 19.7138 4.84978 18.9615 4.78471 18.039C4.70623 17.0054 4.66699 15.9249 4.66699 14.8148C4.66699 14.2415 4.66699 13.6807 4.69666 13.1438C4.71389 12.6538 4.74068 12.2002 4.77226 11.7619C4.83064 10.9781 5.17997 10.245 5.75226 9.70616L10.4217 5.26259C11.1653 4.5544 12.3329 4.5544 13.0756 5.26259L17.7526 9.70885C18.3249 10.2467 18.6742 10.9788 18.7326 11.7617C18.7546 12.0632 18.7747 12.3713 18.7891 12.6881C18.8207 13.3915 18.8379 14.1064 18.8379 14.8175C18.8379 15.9276 18.7986 17.0081 18.723 18.0275V18.0265C18.6522 18.9491 17.9526 19.6984 17.0368 19.8324C16.7554 19.8717 16.4539 19.908 16.1371 19.9406C15.6222 19.9922 15.0662 20.0363 14.4834 20.0679H14.4843C14.1666 20.088 13.8546 19.976 13.623 19.7578C13.3914 19.5405 13.2593 19.2362 13.2593 18.9185V15.0798C13.2584 14.474 12.7674 13.983 12.1616 13.9821H11.3357C10.7308 13.983 10.2399 14.474 10.238 15.0798V18.9261C10.238 19.2399 10.1069 19.5395 9.87812 19.7539C9.66471 19.9596 9.3804 20.0755 9.08466 20.0775ZM11.75 5.46541C11.4447 5.46446 11.1509 5.58026 10.9289 5.78889L6.25476 10.2476C5.81739 10.6611 5.54943 11.2229 5.5054 11.8229C5.47382 12.2545 5.44894 12.712 5.43171 13.18C5.41257 13.7064 5.40205 14.2605 5.40205 14.8242C5.40205 15.9171 5.43841 16.9775 5.51689 17.9776C5.55421 18.5566 5.99349 19.0303 6.56867 19.1116C6.84334 19.1509 7.13428 19.1853 7.4434 19.2169C7.9334 19.2686 8.48943 19.3098 9.0627 19.3394C9.17659 19.3471 9.28952 19.3069 9.37277 19.2284C9.45603 19.1499 9.50389 19.0408 9.50293 18.926V15.0797C9.50484 14.0681 10.3241 13.248 11.3357 13.247H12.1644C13.176 13.248 13.9952 14.0681 13.9972 15.0797V18.926C13.9962 19.0418 14.045 19.1528 14.1302 19.2313C14.2154 19.3097 14.3293 19.349 14.4451 19.3394C15.0183 19.3097 15.5648 19.2686 16.0672 19.2169C16.3735 19.1853 16.6654 19.1509 16.9391 19.1116C17.5095 19.0322 17.9459 18.5661 17.9899 17.9919C18.0684 16.9775 18.1048 15.9171 18.1048 14.8241C18.1048 14.1254 18.0904 13.4201 18.056 12.7291C18.0416 12.4181 18.0244 12.1166 18.0024 11.8228C17.9574 11.2228 17.6904 10.661 17.253 10.2475L12.5684 5.78879C12.3473 5.58015 12.0543 5.46446 11.75 5.46541Z" fill="#450058"/>
</g>
<defs>
<clipPath id="clip0_173_42385">
<rect width="24" height="24" fill="white"/>
</clipPath>
</defs>
</svg>
