<svg width="22" height="22" viewBox="0 0 22 22" fill="none" xmlns="http://www.w3.org/2000/svg">
<path d="M11 18.3334C12.1458 18.3334 13.1199 17.9325 13.9223 17.1307C14.7247 16.3289 15.1256 15.3548 15.125 14.2084C15.1244 13.0619 14.7235 12.0881 13.9223 11.2869C13.1212 10.4858 12.1471 10.0846 11 10.0834C9.85294 10.0821 8.87914 10.4833 8.07858 11.2869C7.27803 12.0905 6.87683 13.0644 6.875 14.2084C6.87317 15.3524 7.27436 16.3265 8.07858 17.1307C8.88281 17.9349 9.85661 18.3358 11 18.3334ZM8.3545 9.9321C8.64783 9.74021 8.96042 9.58591 9.29225 9.46918C9.62469 9.35246 9.96661 9.26691 10.318 9.21252L8.23167 5.07652H5.94L8.3545 9.9321ZM6.62475 17.3571C6.63514 17.2544 6.65897 17.1414 6.69625 17.0179C6.73292 16.8933 6.78669 16.7619 6.85758 16.6238C6.57525 16.1673 6.37175 15.6744 6.24708 15.1452C6.12242 14.616 6.08972 14.0712 6.149 13.5108C6.149 13.0524 6.22844 12.6173 6.38733 12.2054C6.54561 11.7942 6.76561 11.4241 7.04733 11.0954C6.82917 11.1326 6.63728 11.2108 6.47167 11.33C6.30606 11.4498 6.18781 11.5925 6.11692 11.7581C5.43553 11.9237 4.90447 12.3072 4.52375 12.9085C4.14303 13.5098 4.02661 14.176 4.1745 14.9068C4.1745 15.5882 4.41253 16.167 4.88858 16.643C5.36464 17.1191 5.94336 17.3577 6.62475 17.3571ZM15.3753 17.3562C16.2051 17.3073 16.9058 16.9822 17.4772 16.3809C18.0479 15.7801 18.3333 15.056 18.3333 14.2084C18.3333 13.3607 18.0476 12.6366 17.4763 12.0358C16.9049 11.4351 16.2045 11.1097 15.3753 11.0596C15.305 11.0596 15.2347 11.0627 15.1644 11.0688C15.0935 11.0749 15.0226 11.0837 14.9518 11.0954C15.294 11.5268 15.561 12.0071 15.7529 12.5363C15.9454 13.0656 16.0417 13.6229 16.0417 14.2084C16.0417 14.7938 15.9457 15.3511 15.7538 15.8804C15.5613 16.4096 15.2943 16.8899 14.9527 17.3214C15.0229 17.3336 15.0932 17.3424 15.1635 17.3479C15.2344 17.354 15.305 17.3562 15.3753 17.3562ZM11 19.25C10.4127 19.25 9.85783 19.1593 9.33533 18.9778C8.81283 18.7963 8.33831 18.535 7.91175 18.194C7.75042 18.2484 7.58053 18.2851 7.40208 18.304C7.22364 18.323 7.04031 18.3327 6.85208 18.3334C5.72031 18.3334 4.75383 17.9328 3.95267 17.1316C3.1515 16.3304 2.75061 15.3637 2.75 14.2313C2.75 13.1135 3.14019 12.1575 3.92058 11.363C4.70097 10.5686 5.64636 10.1591 6.75675 10.1347C6.88631 10.1347 7.00975 10.1435 7.12708 10.1613C7.24442 10.1784 7.36175 10.1989 7.47908 10.2227L4.98483 5.22502C4.85528 4.97813 4.86383 4.73888 5.0105 4.50727C5.15656 4.27627 5.37014 4.16077 5.65125 4.16077H7.90167C8.18278 4.16077 8.43822 4.23471 8.668 4.3826C8.89778 4.53049 9.07897 4.72788 9.21158 4.97477L11 8.53143L12.7875 4.97477C12.9201 4.72788 13.1013 4.53049 13.3311 4.3826C13.5609 4.23471 13.8163 4.16077 14.0974 4.16077H16.3497C16.6308 4.16077 16.8447 4.27627 16.9913 4.50727C17.1374 4.73949 17.1456 4.97874 17.0161 5.22502L14.5613 10.1594C14.667 10.1356 14.7757 10.1179 14.8876 10.1063C14.9988 10.094 15.1134 10.0879 15.2313 10.0879C16.3533 10.1167 17.3036 10.5282 18.0822 11.3227C18.8607 12.1171 19.25 13.079 19.25 14.2084C19.25 15.3554 18.8494 16.3298 18.0482 17.1316C17.2471 17.9334 16.2727 18.334 15.125 18.3334C14.9404 18.3334 14.7611 18.3236 14.5869 18.304C14.4128 18.2845 14.2447 18.2478 14.0828 18.194C13.6568 18.5234 13.1832 18.7816 12.6619 18.9686C12.1406 19.1556 11.5867 19.2494 11 19.25ZM11 15.2167L10.0182 15.9592C9.93819 16.0117 9.86425 16.0127 9.79642 15.9619C9.72858 15.9112 9.70964 15.844 9.73958 15.7603L10.1044 14.5374L9.14008 13.8417C9.06064 13.7891 9.03619 13.7219 9.06675 13.64C9.09731 13.5581 9.15597 13.5172 9.24275 13.5172H10.4418L10.824 12.2394C10.8546 12.1562 10.9132 12.1147 11 12.1147C11.0868 12.1147 11.1454 12.1562 11.176 12.2394L11.5583 13.5172H12.7572C12.844 13.5172 12.9027 13.5581 12.9333 13.64C12.9638 13.7219 12.9394 13.7891 12.8599 13.8417L11.8956 14.5383L12.2604 15.7593C12.291 15.8431 12.2723 15.9103 12.2045 15.961C12.1367 16.0117 12.0624 16.0111 11.9818 15.9592L11 15.2167ZM13.6464 9.9321L16.082 5.07743H13.7683L11.7673 9.04293L11.8681 9.2446C12.1877 9.30571 12.4969 9.39127 12.7957 9.50127C13.094 9.61127 13.3775 9.75488 13.6464 9.9321Z" fill="#450058"/>
</svg>
