<svg width="23" height="23" viewBox="0 0 23 23" fill="none" xmlns="http://www.w3.org/2000/svg">
<path d="M19.875 12C19.875 11.8735 19.875 11.7483 19.8651 11.6231V11.5303C19.8595 11.4312 19.8518 11.3313 19.8426 11.2322L19.8356 11.1591C19.6865 9.71979 19.1381 8.35072 18.2536 7.2061C18.2451 7.19626 18.2367 7.18782 18.2269 7.17938C17.3508 6.04877 16.1842 5.17688 14.8519 4.6565C14.8427 4.65088 14.8336 4.64596 14.8237 4.64104L14.7154 4.60307C14.5924 4.5658 14.4736 4.52643 14.3583 4.48635L14.3104 4.47228C14.2085 4.44135 14.1051 4.41252 14.0011 4.3851L13.9251 4.36541C13.8316 4.3408 13.7374 4.319 13.6439 4.29932L13.5468 4.27822C13.4554 4.25994 13.364 4.24447 13.2656 4.229L13.1573 4.21213C13.0673 4.19947 12.9787 4.18822 12.8887 4.17838L12.772 4.16572C12.6792 4.15728 12.5878 4.15025 12.4907 4.14463L12.3825 4.1376C12.2587 4.12494 12.1293 4.12494 12 4.12494C11.8706 4.12494 11.7497 4.12494 11.6245 4.13338H11.5106C11.4108 4.13338 11.3123 4.14603 11.2125 4.15588L11.1197 4.16713C11.0198 4.17838 10.92 4.19103 10.8201 4.2051L10.7428 4.21775C10.6387 4.23463 10.5347 4.25291 10.432 4.274L10.3715 4.28666C10.2625 4.30916 10.155 4.33377 10.0481 4.36119L10.0059 4.37244C9.89269 4.40127 9.7802 4.43361 9.6684 4.46806H9.6473C9.46027 4.52713 9.27325 4.59041 9.0848 4.66353C9.07426 4.66845 9.06371 4.67407 9.05387 4.6804C7.71231 5.22251 6.54503 6.12251 5.67887 7.28194C5.67254 7.28827 5.66621 7.2946 5.66059 7.30163C4.82598 8.42874 4.31129 9.76043 4.16997 11.1562C4.16997 11.1829 4.16997 11.211 4.16153 11.2377C4.15239 11.3312 4.14466 11.4283 4.13903 11.5274V11.6244C4.12497 11.751 4.12497 11.8747 4.12497 11.9999C4.12497 12.1518 4.12497 12.3036 4.13903 12.4541C4.13903 12.509 4.14747 12.5638 4.15169 12.6186C4.15872 12.7115 4.16716 12.8057 4.17841 12.8999C4.17841 12.9308 4.17841 12.9618 4.18685 12.9927C4.18614 13.0018 4.18614 13.0117 4.18685 13.0208C4.35911 14.3336 4.86184 15.5817 5.64794 16.6475C5.65286 16.6573 5.65849 16.6672 5.66482 16.677C6.73497 18.1311 8.27554 19.1709 10.0242 19.6204L10.0833 19.6344C10.1831 19.6597 10.283 19.6836 10.3842 19.7047L10.4996 19.7272C10.5572 19.7385 10.6149 19.7511 10.6725 19.761H10.7021C11.8116 19.9487 12.9492 19.8953 14.0362 19.6035H14.0474C14.1093 19.5866 14.1698 19.5669 14.2317 19.5486L14.3723 19.5093C14.4848 19.4741 14.5945 19.4361 14.7042 19.3968H14.7168C16.3945 18.7851 17.8126 17.62 18.7387 16.0934C18.7387 16.0934 18.7387 16.0822 18.7458 16.0765C19.3533 15.0774 19.7287 13.9552 19.8455 12.7915C19.8455 12.7297 19.8553 12.6664 19.8595 12.6045C19.8637 12.5426 19.8708 12.4639 19.875 12.4034V11.9998L19.875 12ZM18.3281 15.6646H15.2343L14.091 14.2682C14.188 14.1564 14.2625 14.0264 14.3089 13.8857L15.0317 11.6624C15.0753 11.526 15.0922 11.3832 15.0824 11.2405L16.7164 10.8903L16.9977 11.1308L19.2351 13.0462C19.1036 13.9694 18.7957 14.8581 18.3281 15.6646ZM14.5312 18.8652H14.5157L14.4159 18.899L15.1598 16.611C15.235 16.3797 15.4509 16.2229 15.6942 16.2229H17.9722C17.1144 17.4315 15.9107 18.3526 14.5198 18.8653L14.5312 18.8652ZM9.33926 16.9077L10.2491 19.0987C8.76972 18.7302 7.44219 17.9083 6.45219 16.7488L8.78229 16.5632C9.02275 16.547 9.24643 16.6855 9.33926 16.9077ZM9.14238 15.9698L8.73034 16.0021L6.03178 16.2187C5.37858 15.299 4.94827 14.2401 4.77459 13.1248L7.23411 11.0154L9.06219 11.2756C9.05797 11.4049 9.07555 11.5343 9.11562 11.6581L9.83843 13.8814C9.88624 14.0249 9.96218 14.1578 10.062 14.271L9.14238 15.9698ZM4.68738 11.9999C4.68738 11.886 4.68738 11.7735 4.69582 11.661V11.5822C4.69582 11.4753 4.70988 11.3685 4.71972 11.2616V11.2503C4.83574 10.1197 5.21612 9.03202 5.82926 8.07496L6.8727 10.5851L4.7028 12.4484V12.4133C4.68733 12.2811 4.68738 12.1405 4.68738 11.9999ZM10.3673 13.7113L9.64447 11.4893C9.56923 11.258 9.6515 11.0042 9.84837 10.8607L11.7398 9.48684C11.9367 9.34411 12.2039 9.34411 12.4008 9.48684L14.2922 10.8607C14.4891 11.0042 14.5713 11.258 14.4961 11.4893L13.7733 13.7113C13.6981 13.9426 13.4822 14.0994 13.2389 14.0994H10.9018C10.6585 14.0994 10.4425 13.9426 10.3673 13.7113ZM11.2968 4.72242C11.3903 4.71398 11.4817 4.70695 11.5696 4.70133H11.6582C11.7721 4.68727 11.8846 4.68727 11.9999 4.68727C12.1152 4.68727 12.2263 4.68727 12.3388 4.6957H12.4246C12.5181 4.70133 12.6124 4.70836 12.7059 4.7168H12.7579C12.8753 4.72875 12.9913 4.74422 13.1066 4.7618H13.1249C13.2381 4.77938 13.3506 4.79977 13.461 4.82227H13.492C13.7029 4.86586 13.9138 4.9193 14.1135 4.98117L12.2601 6.34102C12.0632 6.48375 11.796 6.48375 11.5991 6.34102L9.79353 5.02758C10.2604 4.87992 10.7406 4.77937 11.2279 4.72804L11.2968 4.72242ZM19.3027 12.371L17.3635 10.7088C17.1786 10.5506 17.1167 10.2911 17.2103 10.0661L18.0878 7.95672C18.7452 8.94038 19.1516 10.0703 19.2732 11.2473V11.2726C19.2831 11.3753 19.2915 11.4779 19.2971 11.582V11.6607C19.2971 11.7746 19.3056 11.8886 19.3056 12.0025C19.3056 12.1164 19.3126 12.2471 19.3027 12.3695L19.3027 12.371ZM17.6996 7.42656L16.6913 9.85098L16.4747 10.3727L14.9053 10.7074C14.8308 10.59 14.7359 10.4873 14.6241 10.405L12.7312 9.03114C12.5969 8.93481 12.4436 8.86872 12.2812 8.83848V7.02156L14.7506 5.22577C15.9045 5.69757 16.9191 6.45476 17.6996 7.42656ZM9.15802 5.26242L11.7189 7.1229V8.87229C11.6085 8.90885 11.5037 8.96229 11.4095 9.03119L9.51805 10.4051C9.39712 10.4937 9.29516 10.6055 9.21852 10.7342L7.44523 10.481L6.21898 7.52796C6.98889 6.53375 8.00069 5.75391 9.15802 5.26242ZM10.913 19.232L9.85833 16.6937L9.65442 16.2043L10.5193 14.597C10.6409 14.6412 10.7696 14.6637 10.899 14.6645H13.239C13.3719 14.6637 13.504 14.6391 13.6285 14.5927L14.7633 15.9793L14.6129 16.4433L13.7494 19.1012C12.822 19.3304 11.858 19.3754 10.913 19.2334L10.913 19.232Z" fill="#450058"/>
</svg>
