<svg width="18" height="18" viewBox="0 0 18 18" fill="none" xmlns="http://www.w3.org/2000/svg">
<path d="M9.09006 9.585C9.03756 9.5775 8.97006 9.5775 8.91006 9.585C7.59006 9.54 6.54004 8.46 6.54004 7.13249C6.54004 5.77499 7.63506 4.67249 9.00006 4.67249C10.3576 4.67249 11.4601 5.77499 11.4601 7.13249C11.4526 8.46 10.4101 9.54 9.09006 9.585Z" stroke="#450058" stroke-width="0.6" stroke-linecap="round" stroke-linejoin="round"/>
<path d="M14.0548 14.5351C12.7198 15.7576 10.9498 16.5001 8.99982 16.5001C7.04982 16.5001 5.27982 15.7576 3.94482 14.5351C4.01982 13.8301 4.46982 13.1401 5.27232 12.6001C7.32732 11.2351 10.6873 11.2351 12.7273 12.6001C13.5298 13.1401 13.9798 13.8301 14.0548 14.5351Z" stroke="#450058" stroke-width="0.6" stroke-linecap="round" stroke-linejoin="round"/>
<path d="M9 16.5C13.1421 16.5 16.5 13.1421 16.5 9C16.5 4.85786 13.1421 1.5 9 1.5C4.85786 1.5 1.5 4.85786 1.5 9C1.5 13.1421 4.85786 16.5 9 16.5Z" stroke="#450058" stroke-width="0.6" stroke-linecap="round" stroke-linejoin="round"/>
</svg>
